ply
format ascii 1.0
element vertex 32
property float x
property float y
property float z
property uchar red
property uchar green
property uchar blue
end_header
-1.000000 -1.000000 0.000000 0 0 0
-1.000000 -1.000000 1.000000 0 0 255
-1.000000 -0.333333 0.000000 0 85 0
-1.000000 -0.333333 1.000000 0 85 255
-1.000000 0.333333 0.000000 0 170 0
-1.000000 0.333333 1.000000 0 170 255
-1.000000 1.000000 0.000000 0 255 0
-1.000000 1.000000 1.000000 0 255 255
-0.333333 -1.000000 0.000000 85 0 0
-0.333333 -1.000000 1.000000 85 0 255
-0.333333 -0.333333 0.000000 85 85 0
-0.333333 -0.333333 1.000000 85 85 255
-0.333333 0.333333 0.000000 85 170 0
-0.333333 0.333333 1.000000 85 170 255
-0.333333 1.000000 0.000000 85 255 0
-0.333333 1.000000 1.000000 85 255 255
0.333333 -1.000000 0.000000 170 0 0
0.333333 -1.000000 1.000000 170 0 255
0.333333 -0.333333 0.000000 170 85 0
0.333333 -0.333333 1.000000 170 85 255
0.333333 0.333333 0.000000 170 170 0
0.333333 0.333333 1.000000 170 170 255
0.333333 1.000000 0.000000 170 255 0
0.333333 1.000000 1.000000 170 255 255
1.000000 -1.000000 0.000000 255 0 0
1.000000 -1.000000 1.000000 255 0 255
1.000000 -0.333333 0.000000 255 85 0
1.000000 -0.333333 1.000000 255 85 255
1.000000 0.333333 0.000000 255 170 0
1.000000 0.333333 1.000000 255 170 255
1.000000 1.000000 0.000000 255 255 0
1.000000 1.000000 1.000000 255 255 255
